<svg width="120" height="120" viewBox="0 0 120 120" fill="none" xmlns="http://www.w3.org/2000/svg">
<circle cx="60" cy="60" r="60" fill="#FFD40D"/>
<path d="M79.625 45.125C79.625 41.9625 77.0375 39.375 73.875 39.375H65.25V45.125H73.875V52.7437L63.87 65.25H53.75V50.875H42.25C35.8962 50.875 30.75 56.0212 30.75 62.375V71H36.5C36.5 75.7725 40.3525 79.625 45.125 79.625C49.8975 79.625 53.75 75.7725 53.75 71H66.63L79.625 54.7563V45.125ZM45.125 73.875C43.5437 73.875 42.25 72.5812 42.25 71H48C48 72.5812 46.7063 73.875 45.125 73.875Z" fill="white"/>
<path d="M39.375 42.25H53.75V48H39.375V42.25ZM79.625 62.375C74.8525 62.375 71 66.2275 71 71C71 75.7725 74.8525 79.625 79.625 79.625C84.3975 79.625 88.25 75.7725 88.25 71C88.25 66.2275 84.3975 62.375 79.625 62.375ZM79.625 73.875C78.0438 73.875 76.75 72.5812 76.75 71C76.75 69.4188 78.0438 68.125 79.625 68.125C81.2062 68.125 82.5 69.4188 82.5 71C82.5 72.5812 81.2062 73.875 79.625 73.875Z" fill="white"/>
</svg>
