<svg width="120" height="120" viewBox="0 0 120 120" fill="none" xmlns="http://www.w3.org/2000/svg">
<circle cx="60" cy="60" r="60" fill="#FFD40D"/>
<path fill-rule="evenodd" clip-rule="evenodd" d="M67.9301 39.3536H55.3638C54.9666 41.3011 54.0055 43.0889 52.6 44.4944C51.1945 45.8998 49.4068 46.861 47.4592 47.2582V49.0148C49.4068 49.4119 51.1945 50.3731 52.6 51.7786C54.0055 53.184 54.9666 54.9718 55.3638 56.9194H67.9301C68.3273 54.9718 69.2885 53.184 70.694 51.7786C72.0994 50.3731 73.8872 49.4119 75.8347 49.0148V47.2582C73.8872 46.861 72.0994 45.8998 70.694 44.4944C69.2885 43.0889 68.3273 41.3011 67.9301 39.3536ZM69.5651 35.308C68.8228 35.3008 68.0319 35.2981 67.1924 35.2999H56.1016C55.262 35.2999 54.472 35.3026 53.7316 35.308C53.5839 35.2986 53.4356 35.3013 53.2884 35.3161C52.0669 35.3378 50.9832 35.3891 50.0428 35.5161C48.3456 35.7431 46.8133 36.2458 45.5837 37.4754C44.3514 38.7077 43.8488 40.24 43.6218 41.9344C43.4948 42.8775 43.4434 43.9612 43.4218 45.1827C43.4071 45.3291 43.4044 45.4764 43.4137 45.6232C43.4065 46.3673 43.4038 47.1582 43.4056 47.9959V48.277C43.4056 49.1147 43.4083 49.9057 43.4137 50.6497C43.4044 50.7965 43.4071 50.9439 43.4218 51.0902C43.4434 52.3144 43.4948 53.3954 43.6218 54.3358C43.8488 56.033 44.3514 57.5652 45.5837 58.7948C46.8133 60.0272 48.3456 60.5298 50.0428 60.7568C50.9832 60.8838 52.0669 60.9352 53.2884 60.9568C53.4356 60.9716 53.5839 60.9743 53.7316 60.9649C54.472 60.9721 55.262 60.9748 56.1016 60.973H67.1924C68.0301 60.973 68.821 60.9703 69.5651 60.9649C69.7119 60.9742 69.8592 60.9715 70.0056 60.9568C71.2298 60.9352 72.3135 60.8838 73.2512 60.7568C74.9484 60.5298 76.4806 60.0272 77.7102 58.7948C78.9425 57.5652 79.4452 56.033 79.6722 54.3358C79.798 53.2584 79.8648 52.1749 79.8722 51.0902C79.8869 50.9439 79.8896 50.7965 79.8803 50.6497C79.8875 49.9057 79.8902 49.1147 79.8884 48.277V47.9959C79.8884 47.1582 79.8857 46.3673 79.8803 45.6232C79.8896 45.4764 79.8869 45.3291 79.8722 45.1827C79.8648 44.098 79.798 43.0145 79.6722 41.9371C79.4452 40.24 78.9425 38.7077 77.7129 37.4781C76.4806 36.2458 74.9484 35.7431 73.2539 35.5161C72.1756 35.3902 71.0912 35.3234 70.0056 35.3161C69.8592 35.3014 69.7119 35.2987 69.5651 35.308ZM72.1703 39.4725C72.4767 40.2807 72.9512 41.0147 73.5624 41.6259C74.1736 42.2371 74.9076 42.7116 75.7158 43.0181C75.6987 42.8375 75.678 42.6573 75.6537 42.4776C75.4888 41.2291 75.197 40.694 74.843 40.3427C74.4889 39.9913 73.9593 39.7022 72.7134 39.5319C72.5337 39.5085 72.3535 39.4887 72.173 39.4725M75.7185 53.2549C74.9103 53.5613 74.1763 54.0358 73.5651 54.647C72.9539 55.2582 72.4794 55.9922 72.173 56.8005C72.3621 56.7824 72.5423 56.7626 72.7134 56.741C73.962 56.5707 74.497 56.2816 74.8484 55.9303C75.1997 55.579 75.4915 55.0439 75.6591 53.7953C75.6807 53.6242 75.7005 53.444 75.7185 53.2549ZM51.1264 56.8005C50.82 55.9922 50.3455 55.2582 49.7343 54.647C49.1231 54.0358 48.3891 53.5613 47.5808 53.2549C47.5989 53.444 47.6196 53.6242 47.643 53.7953C47.8105 55.0439 48.0997 55.579 48.4537 55.9303C48.8077 56.2816 49.3374 56.5707 50.5832 56.741C50.7562 56.7626 50.9373 56.7824 51.1264 56.8005ZM47.5808 43.0181C48.3891 42.7116 49.1231 42.2371 49.7343 41.6259C50.3455 41.0147 50.82 40.2807 51.1264 39.4725C50.9373 39.4905 50.7571 39.5112 50.5859 39.5346C49.3374 39.7022 48.8023 39.9913 48.451 40.3454C48.0997 40.6994 47.8105 41.2291 47.6403 42.4749L47.5808 43.0181ZM61.647 47.4609C61.4678 47.4609 61.296 47.532 61.1693 47.6587C61.0426 47.7854 60.9714 47.9573 60.9714 48.1365C60.9714 48.3156 61.0426 48.4875 61.1693 48.6142C61.296 48.7409 61.4678 48.8121 61.647 48.8121C61.8262 48.8121 61.998 48.7409 62.1247 48.6142C62.2514 48.4875 62.3226 48.3156 62.3226 48.1365C62.3226 47.9573 62.2514 47.7854 62.1247 47.6587C61.998 47.532 61.8262 47.4609 61.647 47.4609ZM56.9177 48.1365C56.9177 46.8822 57.416 45.6793 58.3029 44.7924C59.1898 43.9055 60.3927 43.4072 61.647 43.4072C62.9013 43.4072 64.1042 43.9055 64.9911 44.7924C65.878 45.6793 66.3762 46.8822 66.3762 48.1365C66.3762 49.3907 65.878 50.5936 64.9911 51.4805C64.1042 52.3675 62.9013 52.8657 61.647 52.8657C60.3927 52.8657 59.1898 52.3675 58.3029 51.4805C57.416 50.5936 56.9177 49.3907 56.9177 48.1365ZM52.6857 68.2642C57.7285 67.2886 63.1252 67.5075 67.495 70.1126C68.1058 70.4775 68.6841 70.9342 69.1841 71.4963C70.2002 72.6394 70.7245 74.0555 70.7488 75.477C71.264 75.1418 71.7838 74.7752 72.3081 74.3771L77.1941 70.6882C78.4181 69.7899 79.8969 69.3055 81.4153 69.3055C82.9336 69.3055 84.4124 69.7899 85.6365 70.6882C87.893 72.3908 88.7956 75.4526 87.1768 78.047C86.0283 79.8873 84.2988 82.4357 82.5368 84.068C80.7532 85.7165 78.221 87.1055 76.305 88.0297C73.9755 89.1539 71.4622 89.7755 69.0165 90.1701C64.017 90.9808 58.8175 90.8565 53.8775 89.8377C51.3299 89.3139 48.7359 89.0486 46.135 89.0459H40.0275C39.49 89.0459 38.9745 88.8323 38.5944 88.4522C38.2143 88.0721 38.0007 87.5566 38.0007 87.019C38.0007 86.4815 38.2143 85.966 38.5944 85.5858C38.9745 85.2057 39.49 84.9922 40.0275 84.9922H46.135C49.005 84.9922 51.9047 85.2922 54.6963 85.8678C59.199 86.7917 63.8318 86.8934 68.3706 86.1678C70.6082 85.8056 72.6999 85.2679 74.543 84.3788C76.3887 83.4869 78.4642 82.3141 79.7803 81.0953C81.1126 79.8603 82.6016 77.7227 83.7394 75.9012C84.0826 75.3499 84.0339 74.5581 83.1935 73.923C82.1936 73.1664 80.6343 73.1664 79.6371 73.923L74.7538 77.6119C72.8026 79.0847 70.4029 80.6602 67.4275 81.1358C67.1158 81.1852 66.8031 81.2284 66.4897 81.2656C66.3348 81.2926 66.1736 81.3106 66.006 81.3196C64.2697 81.4881 62.5212 81.4881 60.7849 81.3196C60.5157 81.3001 60.2532 81.227 60.0126 81.1047C59.772 80.9823 59.5583 80.8132 59.384 80.6071C59.2097 80.4011 59.0783 80.1623 58.9975 79.9048C58.9168 79.6473 58.8882 79.3762 58.9136 79.1075C58.939 78.8388 59.0177 78.5779 59.1453 78.3401C59.2729 78.1022 59.4467 77.8923 59.6565 77.7225C59.8663 77.5527 60.1078 77.4266 60.3671 77.3514C60.6263 77.2763 60.8979 77.2536 61.166 77.2849C62.6651 77.43 64.175 77.4272 65.6736 77.2768L65.7547 77.2687C66.0068 77.1122 66.2211 76.9017 66.382 76.6524C66.543 76.4031 66.6466 76.1211 66.6853 75.8269C66.7241 75.5327 66.6971 75.2336 66.6063 74.9511C66.5154 74.6686 66.363 74.4098 66.16 74.1933C65.9433 73.9577 65.6929 73.7556 65.4169 73.5934C62.2253 71.6881 57.9609 71.372 53.4559 72.2421C49.0551 73.1256 44.8834 74.9056 41.2004 77.4713C40.9832 77.6254 40.7378 77.7351 40.4782 77.7943C40.2186 77.8535 39.9499 77.8609 39.6874 77.8163C39.4249 77.7716 39.1738 77.6757 38.9484 77.5339C38.723 77.3922 38.5277 77.2075 38.3737 76.9903C38.2196 76.7731 38.1099 76.5277 38.0507 76.2681C37.9915 76.0085 37.9841 75.7398 38.0287 75.4773C38.1189 74.9472 38.4161 74.4746 38.8547 74.1636C43.0092 71.2649 47.7181 69.2564 52.6857 68.2642Z" fill="white"/>
</svg>
