<svg width="120" height="120" viewBox="0 0 120 120" fill="none" xmlns="http://www.w3.org/2000/svg">
<circle cx="60" cy="60" r="60" fill="#FFD40D"/>
<path d="M38.6695 36.2747C38.7175 35.6917 38.9883 35.1496 39.4257 34.7612C39.8631 34.3728 40.4334 34.1679 41.0179 34.1892C41.6025 34.2105 42.1564 34.4563 42.5643 34.8755C42.9723 35.2948 43.203 35.8551 43.2084 36.44V48.0495C43.2084 48.4777 43.3785 48.8884 43.6813 49.1912C43.9841 49.494 44.3948 49.6641 44.823 49.6641C45.2512 49.6641 45.6619 49.494 45.9647 49.1912C46.2675 48.8884 46.4376 48.4777 46.4376 48.0495V36.1042C46.4376 35.5903 46.6417 35.0975 47.0051 34.7342C47.3684 34.3708 47.8612 34.1667 48.3751 34.1667C48.8889 34.1667 49.3817 34.3708 49.7451 34.7342C50.1085 35.0975 50.3126 35.5903 50.3126 36.1042V48.0495C50.3126 48.4777 50.4827 48.8884 50.7855 49.1912C51.0883 49.494 51.499 49.6641 51.9272 49.6641C52.3554 49.6641 52.7661 49.494 53.0688 49.1912C53.3716 48.8884 53.5417 48.4777 53.5417 48.0495V36.44C53.5472 35.8551 53.7778 35.2948 54.1858 34.8755C54.5938 34.4563 55.1477 34.2105 55.7322 34.1892C56.3168 34.1679 56.8871 34.3728 57.3245 34.7612C57.7619 35.1496 58.0327 35.6917 58.0807 36.2747C58.1917 37.8557 58.7084 45.4559 58.7084 49.6667C58.7084 53.1542 56.9776 56.2387 54.3374 58.1064C53.7794 58.5017 53.6451 58.9202 53.658 59.132C53.9757 63.9835 54.8334 77.2618 54.8334 79.3673C54.8334 81.0801 54.153 82.7228 52.9418 83.934C51.7306 85.1452 50.0879 85.8256 48.3751 85.8256C46.6622 85.8256 45.0195 85.1452 43.8084 83.934C42.5972 82.7228 41.9167 81.0801 41.9167 79.3673C41.9167 77.2593 42.7744 63.9835 43.0922 59.132C43.1051 58.9202 42.9707 58.5017 42.4127 58.1064C41.0619 57.1521 39.9599 55.8875 39.1993 54.4189C38.4387 52.9503 38.0417 51.3206 38.0417 49.6667C38.0417 45.4559 38.5584 37.8557 38.6695 36.2747ZM62.5834 49.0209C62.5834 45.0813 64.1484 41.3031 66.9341 38.5174C69.7198 35.7317 73.498 34.1667 77.4376 34.1667C77.9514 34.1667 78.4442 34.3708 78.8076 34.7342C79.171 35.0975 79.3751 35.5903 79.3751 36.1042V58.0625C79.3751 58.884 79.6489 62.9579 79.9563 67.471L79.9692 67.6854C80.3051 72.6144 80.6667 77.9748 80.6667 79.3673C80.6667 81.0801 79.9863 82.7228 78.7751 83.934C77.564 85.1452 75.9213 85.8256 74.2084 85.8256C72.4956 85.8256 70.8529 85.1452 69.6417 83.934C68.4305 82.7228 67.7501 81.0801 67.7501 79.3673C67.7501 78.0394 68.0807 72.6222 68.4011 67.6544C68.5612 65.146 68.724 62.7151 68.8454 60.9119L68.9048 60H67.1042C66.5106 60 65.9227 59.8831 65.3742 59.6559C64.8257 59.4287 64.3273 59.0957 63.9075 58.6759C63.4877 58.2561 63.1547 57.7577 62.9275 57.2092C62.7003 56.6607 62.5834 56.0729 62.5834 55.4792V49.0209Z" fill="white"/>
</svg>
