<svg width="120" height="120" viewBox="0 0 120 120" fill="none" xmlns="http://www.w3.org/2000/svg">
<circle cx="60" cy="60" r="60" fill="#FFD40D"/>
<path d="M77.0359 91.3803H81.8182C84.2382 91.3803 86.226 89.5077 86.5141 87.1453L91.2676 39.6677H76.863V28H71.1876V39.6677H56.8694L57.7337 46.4091C62.6601 47.7631 67.2695 50.2119 70.0352 52.92C74.1837 57.0109 77.0359 61.2458 77.0359 68.1601V91.3803ZM27.8873 88.4994V85.6184H71.1876V88.4994C71.1876 90.0551 69.8912 91.3803 68.2202 91.3803H30.7683C29.1837 91.3803 27.8873 90.0551 27.8873 88.4994ZM71.1876 68.3329C71.1876 45.2855 27.8873 45.2855 27.8873 68.3329H71.1876ZM27.8873 74.0948H71.1012V79.8566H27.8873V74.0948Z" fill="white"/>
</svg>
